<svg width="24" height="22" viewBox="0 0 24 22" fill="currentColor" xmlns="http://www.w3.org/2000/svg">
<path d="M7.78125 14.6345H20.4846C20.7991 14.6345 21.0751 14.4274 21.1602 14.1267L23.9729 4.32656C24.0333 4.11529 23.9919 3.88834 23.8588 3.71279C23.7255 3.53779 23.5183 3.43444 23.2971 3.43444H6.15802L5.6554 1.18279C5.58398 0.862141 5.29834 0.63446 4.96875 0.63446H0.703125C0.314575 0.63446 0 0.947635 0 1.33445C0 1.72146 0.314575 2.03445 0.703125 2.03445H4.40442L6.94354 13.4094C6.19647 13.7327 5.67188 14.473 5.67188 15.3345C5.67188 16.4924 6.61816 17.4345 7.78125 17.4345H20.4846C20.8733 17.4345 21.1877 17.1215 21.1877 16.7345C21.1877 16.3477 20.8733 16.0345 20.4846 16.0345H7.78125C7.39398 16.0345 7.07813 15.7208 7.07813 15.3345C7.07813 14.9482 7.39398 14.6345 7.78125 14.6345Z" />
<path d="M7.07812 19.5345C7.07812 20.6926 8.02441 21.6345 9.18768 21.6345C10.3508 21.6345 11.2971 20.6926 11.2971 19.5345C11.2971 18.3766 10.3508 17.4345 9.18768 17.4345C8.02441 17.4345 7.07812 18.3766 7.07812 19.5345Z" />
<path d="M16.9688 19.5345C16.9688 20.6926 17.915 21.6345 19.0781 21.6345C20.2414 21.6345 21.1875 20.6926 21.1875 19.5345C21.1875 18.3766 20.2414 17.4345 19.0781 17.4345C17.915 17.4345 16.9688 18.3766 16.9688 19.5345Z" />
</svg>
