<svg width="33" height="34" viewBox="0 0 33 34" fill="currentColor" xmlns="http://www.w3.org/2000/svg">
<g clip-path="url(#clip0_387_1662)">
<path d="M17.6056 6.7692V3.84823L23.6156 2.37486C24.1593 2.24158 24.4877 1.688 24.344 1.14698L24.3036 0.994887C24.1642 0.470002 23.6314 0.152297 23.1034 0.279226L16.1613 1.94796C15.7119 2.056 15.3951 2.45801 15.3951 2.92026V6.7692H8.16699C7.61471 6.7692 7.16699 7.21692 7.16699 7.7692V11.5158H25.8337V7.7692C25.8337 7.21692 25.3859 6.7692 24.8337 6.7692H17.6056Z" />
<path d="M7.25293 13.3414L9.79504 31.1593C9.9424 32.2547 10.9003 33.0579 11.9687 33.0579H20.9214C22.0266 33.0579 22.9477 32.2547 23.095 31.1593L25.6371 13.3414H7.25293Z" />
</g>
<defs>
<clipPath id="clip0_387_1662">
<rect width="32" height="33.007" transform="translate(0.5 0.0509644)"/>
</clipPath>
</defs>
</svg>
