<svg width="32" height="34" viewBox="0 0 32 34" fill="currentColor" xmlns="http://www.w3.org/2000/svg">
<path d="M31.814 0.854627C31.6432 0.681225 31.3908 0.623339 31.165 0.706567L5.20549 10.2319C4.30361 9.66432 3.15968 9.53144 2.11049 9.97852C0.368934 10.7209 -0.461127 12.783 0.260246 14.5754C1.96143 18.8016 4.41761 22.5846 7.56079 25.8192C10.704 29.0538 14.38 31.5815 18.4868 33.3321C18.9133 33.5139 19.3553 33.5999 19.7906 33.5999C21.1328 33.5999 22.409 32.7814 22.9536 31.428C23.3201 30.5174 23.2855 29.5373 22.935 28.6958L31.9662 1.52051C32.0439 1.28691 31.9847 1.02809 31.814 0.854627ZM9.1361 10.1553L11.8873 9.14586C12.2103 9.49999 12.3678 9.98752 12.3047 10.4806C12.2491 10.9147 12.0326 11.3007 11.695 11.5673C11.3575 11.8339 10.9395 11.9491 10.5173 11.892C10.0955 11.8349 9.72048 11.6121 9.46142 11.2647C9.22273 10.9446 9.10917 10.554 9.1361 10.1553ZM21.7988 30.9356C21.3411 32.0726 20.0698 32.6145 18.9651 32.1435C10.9627 28.7323 4.72999 22.3183 1.41518 14.083C1.19349 13.5323 1.19349 12.9257 1.41518 12.3749C1.63687 11.8241 2.05368 11.3952 2.58887 11.167C3.12405 10.9389 3.71355 10.9389 4.24874 11.167C4.78392 11.3952 5.20074 11.8241 5.42242 12.3749C6.84123 15.8999 8.88998 19.0553 11.5117 21.7533C14.1335 24.4513 17.1996 26.5596 20.625 28.0197C21.7299 28.4906 22.2565 29.7987 21.7988 30.9356ZM27.3514 11.4313C27.2949 11.4299 27.2383 11.4266 27.1818 11.419C26.7599 11.3618 26.3849 11.139 26.1259 10.7916C25.8669 10.4442 25.7548 10.0138 25.8103 9.57968C25.925 8.68347 26.7266 8.05046 27.5978 8.16829C27.8665 8.20469 28.1188 8.31197 28.334 8.47515L27.3514 11.4313ZM28.7494 7.22455C28.4449 7.05391 28.1104 6.94026 27.7609 6.89293C26.2064 6.68177 24.7756 7.81229 24.571 9.41181C24.4719 10.1866 24.6719 10.9547 25.1342 11.5748C25.5795 12.172 26.217 12.5621 26.9361 12.6811L25.6939 16.4192L24.2653 15.2911C23.9914 15.0749 23.599 15.1279 23.389 15.4098C23.1788 15.6916 23.2305 16.0953 23.5043 16.3116L25.2671 17.7036L22.0363 27.4255C21.7653 27.1831 21.4532 26.9802 21.1036 26.8312C14.4799 24.0077 9.32117 18.6989 6.57761 11.8826C6.48223 11.6455 6.36373 11.4254 6.22705 11.2227L7.90073 10.6086C7.95917 11.1275 8.15273 11.6225 8.46979 12.0477C8.93204 12.6677 9.60135 13.0653 10.3542 13.1673C10.4804 13.1844 10.6061 13.1929 10.7312 13.1929C11.353 13.1929 11.9545 12.9838 12.456 12.5878C13.0586 12.112 13.4449 11.4234 13.5441 10.6485C13.633 9.95285 13.4753 9.26388 13.1211 8.69312L20.8903 5.84242L21.1847 6.57397C21.2845 6.82166 21.5171 6.9712 21.7624 6.9712C21.8421 6.9712 21.9231 6.95538 22.0013 6.92206C22.3202 6.78616 22.4716 6.40983 22.3396 6.08168L22.0692 5.40988L30.3641 2.36623L28.7494 7.22455Z" />
<path d="M6.75003 17.924C6.74815 17.921 6.74297 17.9128 6.74097 17.9099C6.54959 17.6144 6.16228 17.5351 5.87509 17.7319C5.58841 17.9283 5.51066 18.327 5.70041 18.6226C5.82009 18.8118 6.02034 18.915 6.22491 18.915C6.34065 18.915 6.45772 18.882 6.56222 18.8128C6.85259 18.6207 6.93665 18.2228 6.75003 17.924Z" />
<path d="M5.79949 16.3262C5.19043 15.2273 4.64293 14.0771 4.17224 12.9079C4.04018 12.5796 3.67437 12.424 3.35568 12.5599C3.03674 12.6958 2.88537 13.072 3.01749 13.4002C3.50812 14.6191 4.07887 15.818 4.71374 16.9635C4.82905 17.1715 5.04005 17.2881 5.25718 17.2881C5.36218 17.2881 5.46861 17.2609 5.56624 17.2036C5.86605 17.0275 5.97055 16.6347 5.79949 16.3262Z" />
<path d="M19.5582 8.90095C19.4343 8.8841 19.3085 8.87561 19.1842 8.87561C17.7644 8.87561 16.5538 9.96934 16.3683 11.4197C16.1637 13.0192 17.2616 14.4918 18.8158 14.7024C18.9397 14.7192 19.0655 14.7277 19.1898 14.7277C20.6095 14.7277 21.8201 13.634 22.0057 12.1835C22.2103 10.5841 21.1123 9.11153 19.5582 8.90095ZM20.7665 12.0156C20.6625 12.8284 19.9847 13.4413 19.1898 13.4413C19.1199 13.4413 19.049 13.4365 18.979 13.427C18.1081 13.309 17.493 12.4838 17.6076 11.5876C17.7116 10.7749 18.3893 10.162 19.1842 10.162C19.2541 10.162 19.325 10.1668 19.395 10.1763C20.2658 10.2944 20.8811 11.1195 20.7665 12.0156Z" />
<path d="M19.3954 16.9013C19.2714 16.8844 19.1457 16.8759 19.0214 16.8759C17.6016 16.8759 16.391 17.9696 16.2055 19.4201C16.1063 20.1949 16.3063 20.963 16.7686 21.5831C17.2309 22.2031 17.9001 22.6007 18.6531 22.7028C18.7769 22.7196 18.9026 22.728 19.0268 22.728C20.4466 22.728 21.6573 21.6343 21.8429 20.1838C22.0475 18.5845 20.9495 17.112 19.3954 16.9013ZM20.6037 20.016C20.4997 20.8288 19.8218 21.4417 19.0269 21.4417C18.9571 21.4417 18.8862 21.4368 18.8163 21.4274C18.3944 21.3701 18.0194 21.1473 17.7604 20.8C17.5013 20.4526 17.3892 20.0222 17.4448 19.5879C17.5488 18.7752 18.2266 18.1623 19.0214 18.1623C19.0913 18.1623 19.1622 18.1671 19.2322 18.1766C20.103 18.2946 20.7182 19.1198 20.6037 20.016Z" />
<path d="M15.2732 14.2367L13.3522 13.9764C13.0101 13.9297 12.696 14.1779 12.6509 14.5301C12.6058 14.8823 12.8468 15.2053 13.1889 15.2517L15.1099 15.512C15.1376 15.5158 15.1651 15.5176 15.1923 15.5176C15.5011 15.5176 15.7697 15.282 15.8111 14.9584C15.8563 14.6062 15.6154 14.2831 15.2732 14.2367Z" />
<path d="M14.2991 18.9832L14.1294 17.6567C14.0844 17.3045 13.7705 17.0565 13.4282 17.103C13.086 17.1493 12.8451 17.4723 12.8902 17.8245L13.0599 19.151C13.1012 19.4747 13.3698 19.7103 13.6787 19.7103C13.7059 19.7103 13.7334 19.7085 13.761 19.7047C14.1032 19.6584 14.3441 19.3354 14.2991 18.9832Z" />
</svg>
