<svg width="33" height="34" viewBox="0 0 33 34" fill="currentColor" xmlns="http://www.w3.org/2000/svg">
<g clip-path="url(#clip0_387_1652)">
<path d="M26.6547 23.78C26.7379 24.6709 26.4344 25.545 25.8211 26.1782C25.2078 26.8114 24.3625 27.1243 23.4977 27.0392C22.7801 26.9676 22.0945 27.3754 21.7953 28.0539C21.4355 28.869 20.7488 29.4691 19.9113 29.7008C19.073 29.9323 18.1883 29.7674 17.4828 29.2473C17.3628 29.1589 17.233 29.0933 17.0996 29.041V33.0579C22.5463 32.8492 27.3036 29.8177 30.0391 25.3403L26.6732 23.334C26.6504 23.4795 26.6406 23.6284 26.6547 23.78Z" />
<path d="M13.8402 29.8033C13.5895 29.8033 13.3371 29.7696 13.0887 29.7008C12.2512 29.4693 11.5645 28.8692 11.2047 28.0544C10.9051 27.3752 10.2188 26.9683 9.50195 27.0393C8.63633 27.1235 7.7918 26.8112 7.17891 26.1782C6.56563 25.545 6.26211 24.6709 6.34531 23.7798C6.35942 23.6283 6.34956 23.4794 6.32676 23.334L2.96094 25.3403C5.69644 29.8177 10.4537 32.8493 15.9004 33.0579V29.041C15.767 29.0933 15.6372 29.159 15.5172 29.2473C15.0207 29.6131 14.4352 29.8033 13.8402 29.8033Z" />
<path d="M13.3985 4.60464C12.9083 4.74035 12.5067 5.09142 12.2962 5.56832C11.7845 6.72842 10.6083 7.42613 9.38643 7.30292C8.88057 7.25271 8.38564 7.43601 8.02705 7.80664C7.66807 8.17707 7.49033 8.68866 7.53916 9.21013C7.57808 9.62732 7.52373 10.0351 7.40332 10.417L15.8997 15.4816V5.3521C15.5191 5.2688 15.15 5.11355 14.8196 4.87021C14.4067 4.56572 13.8884 4.46953 13.3985 4.60464ZM13.5667 11.3094C12.661 11.8493 11.5029 11.5289 10.9801 10.5939C10.4572 9.6588 10.7675 8.46316 11.6731 7.92332C12.5788 7.38348 13.7369 7.70385 14.2598 8.63888C14.7826 9.57393 14.4723 10.7696 13.5667 11.3094Z" />
<path d="M5.36172 22.0216C4.57266 21.6508 3.99141 20.942 3.7668 20.0773C3.54219 19.2124 3.70234 18.2983 4.20625 17.5696C4.62578 16.9624 4.62578 16.1465 4.20625 15.5396C3.70234 14.8106 3.54219 13.8965 3.7668 13.0316C3.99141 12.167 4.57266 11.4582 5.36172 11.0871C5.4959 11.024 5.61582 10.9408 5.72637 10.8477L2.35801 8.8399C1.17388 11.1443 0.5 13.7692 0.5 16.5545C0.5 19.3398 1.17388 21.9646 2.35801 24.269L5.72647 22.2612C5.61587 22.168 5.4959 22.0848 5.36172 22.0216Z" />
<path d="M19.9113 3.40806C20.7488 3.63956 21.4355 4.23967 21.7953 5.05454C22.0945 5.7337 22.7801 6.14143 23.498 6.06965C24.3609 5.98395 25.2082 6.29771 25.8211 6.93069C26.4344 7.56388 26.7379 8.43803 26.6547 9.32912C26.6406 9.48061 26.6504 9.62948 26.6732 9.77492L30.0391 7.7686C27.3036 3.29121 22.5463 0.259647 17.0996 0.0509644V4.06789C17.233 4.01556 17.3628 3.94995 17.4828 3.86158C18.1883 3.34152 19.073 3.17596 19.9113 3.40806Z" />
<path d="M4.9262 19.7564C5.05745 20.2624 5.39769 20.6772 5.8598 20.8941C6.22908 21.0679 6.54388 21.3204 6.80408 21.619L15.3006 16.5544L6.80403 11.4898C6.54388 11.7884 6.22903 12.0408 5.8598 12.2145C5.39769 12.4317 5.05745 12.8465 4.9262 13.3524C4.79495 13.8584 4.8887 14.3933 5.18323 14.8198C5.90081 15.8573 5.90081 17.2515 5.18323 18.2892C4.8887 18.7155 4.79495 19.2505 4.9262 19.7564ZM8.74085 14.5995C9.7866 14.5995 10.6344 15.4747 10.6344 16.5544C10.6344 17.6341 9.7866 18.5094 8.74085 18.5094C7.69505 18.5094 6.8473 17.6341 6.8473 16.5544C6.8473 15.4747 7.69505 14.5995 8.74085 14.5995Z" />
<path d="M2.96094 7.7686L6.32676 9.7749C6.34961 9.62941 6.35942 9.48049 6.34531 9.32892C6.26211 8.43803 6.56563 7.56388 7.17891 6.93069C7.79219 6.29751 8.6375 5.98435 9.50234 6.06965C10.2176 6.14244 10.9055 5.73329 11.2047 5.05494C11.5645 4.23987 12.2512 3.63976 13.0887 3.40806C13.9266 3.17637 14.8113 3.34152 15.5172 3.86158C15.6372 3.94995 15.767 4.01556 15.9004 4.06789V0.0509644C10.4537 0.259647 5.69644 3.29121 2.96094 7.7686Z" />
<path d="M30.6419 8.8399L27.2734 10.8478C27.384 10.9409 27.504 11.0242 27.6382 11.0873C28.4272 11.4582 29.0085 12.167 29.2331 13.0316C29.4577 13.8965 29.2976 14.8106 28.7937 15.5394C28.3741 16.1465 28.3741 16.9624 28.7937 17.5694C29.2976 18.2983 29.4577 19.2124 29.2331 20.0773C29.0085 20.942 28.4272 21.6508 27.6382 22.0218C27.504 22.0849 27.3841 22.1681 27.2735 22.2612L30.6419 24.269C31.826 21.9646 32.4999 19.3398 32.4999 16.5545C32.4999 13.7692 31.826 11.1443 30.6419 8.8399Z" />
<path d="M7.53916 23.8986C7.49033 24.4202 7.66807 24.9318 8.02705 25.3023C8.38564 25.6727 8.88486 25.8546 9.38604 25.806C10.6188 25.6826 11.7849 26.3811 12.2962 27.5406C12.5067 28.0173 12.9083 28.3686 13.3985 28.5043C13.888 28.6398 14.4067 28.5432 14.8196 28.2387C15.15 27.9954 15.5191 27.8401 15.8997 27.7567V17.6273L7.40332 22.6919C7.52373 23.0738 7.57808 23.4815 7.53916 23.8986ZM10.9801 22.515C11.5029 21.58 12.661 21.2596 13.5667 21.7995C14.4723 22.3393 14.7826 23.535 14.2598 24.47C13.7369 25.405 12.5788 25.7254 11.6731 25.1856C10.7675 24.6457 10.4572 23.4501 10.9801 22.515Z" />
<path d="M19.6008 28.5043C20.091 28.3686 20.4926 28.0175 20.7031 27.5406C21.2148 26.3807 22.391 25.6848 23.6129 25.806C24.1172 25.8542 24.6137 25.6725 24.9723 25.3023C25.3313 24.9318 25.509 24.4202 25.4602 23.8988C25.4212 23.4816 25.4756 23.0738 25.596 22.6919L17.0996 17.6273V27.7567C17.4802 27.84 17.8493 27.9953 18.1797 28.2387C18.593 28.5434 19.1117 28.64 19.6008 28.5043ZM19.4326 21.7995C20.3383 21.2596 21.4964 21.58 22.0192 22.515C22.5421 23.4501 22.2318 24.6457 21.3262 25.1856C20.4205 25.7254 19.2625 25.405 18.7396 24.47C18.2167 23.535 18.527 22.3393 19.4326 21.7995Z" />
<path d="M28.0746 13.3525C27.9433 12.8465 27.6031 12.4317 27.141 12.2148C26.7716 12.041 26.4569 11.7885 26.1967 11.4899L17.7002 16.5545L26.1967 21.6191C26.4569 21.3205 26.7717 21.0681 27.141 20.8944C27.6031 20.6772 27.9433 20.2624 28.0746 19.7565C28.2058 19.2505 28.1121 18.7156 27.8175 18.2891C27.1 17.2516 27.1 15.8574 27.8175 14.8197C28.1121 14.3934 28.2058 13.8584 28.0746 13.3525ZM24.2599 18.5094C23.2142 18.5094 22.3664 17.6342 22.3664 16.5545C22.3664 15.4748 23.2142 14.5995 24.2599 14.5995C25.3057 14.5995 26.1535 15.4748 26.1535 16.5545C26.1535 17.6342 25.3057 18.5094 24.2599 18.5094Z" />
<path d="M25.4602 9.21036C25.509 8.68869 25.3313 8.1771 24.9723 7.80667C24.6137 7.43624 24.1141 7.25314 23.6133 7.30295C22.3809 7.42495 21.2145 6.72804 20.7031 5.56835C20.4926 5.09165 20.091 4.74037 19.6008 4.60466C19.1113 4.46936 18.593 4.56575 18.1797 4.87024C17.8493 5.11358 17.4802 5.26882 17.0996 5.35213V15.4816L25.596 10.4171C25.4756 10.0352 25.4212 9.62747 25.4602 9.21036ZM22.0192 10.5939C21.4964 11.5289 20.3383 11.8493 19.4326 11.3094C18.527 10.7696 18.2167 9.57396 18.7396 8.63891C19.2625 7.70388 20.4205 7.38351 21.3262 7.92335C22.2318 8.46319 22.5421 9.65883 22.0192 10.5939Z" />
</g>
<defs>
<clipPath id="clip0_387_1652">
<rect width="32" height="33.007"  transform="translate(0.5 0.0509644)"/>
</clipPath>
</defs>
</svg>
