<svg width="33" height="34" viewBox="0 0 33 34" fill="currentColor" xmlns="http://www.w3.org/2000/svg">
<g clip-path="url(#clip0_387_1657)">
<path d="M19.9589 20.0427C15.7032 20.0427 11.6924 20.6884 8.36036 21.9099C7.53783 22.2115 6.6816 22.3645 5.81566 22.3644C4.74778 22.3644 3.71302 22.1295 2.76855 21.6968C3.54435 24.6721 6.18678 26.8691 9.31881 26.8691H24.8106C27.9747 26.8691 30.6394 24.6268 31.3843 21.605C31.0826 21.6039 30.7825 21.5608 30.4922 21.476C27.2793 20.5384 23.6369 20.0427 19.9589 20.0427V20.0427Z" />
<path d="M10.5408 18.8778C11.87 18.5441 13.2596 18.285 14.6866 18.1021C11.9045 14.9656 11.6453 9.68609 14.1833 6.23975C12.1397 6.30459 10.1447 6.64917 8.28711 7.24478C7.33536 8.1852 6.65994 9.3965 6.35925 10.7281C5.54636 14.0359 7.44295 17.708 10.5408 18.8778Z" />
<path d="M7.60386 19.7747C4.82169 17.6281 3.3729 13.9174 4.20934 10.2136C4.31487 9.74632 4.45712 9.29092 4.62984 8.84961C3.8926 9.27403 3.19658 9.74617 2.55082 10.2641C-1.4576 13.4599 0.824821 20.1045 5.81605 20.092C6.41007 20.092 7.01367 19.989 7.60386 19.7747V19.7747Z" />
<path d="M26.4458 9.56732C25.4727 10.0608 24.6881 10.8707 24.2115 11.8853C23.4101 13.591 23.6107 15.5741 24.6767 17.0568C24.8416 17.286 25.4472 17.9751 25.5035 18.1316C27.427 18.3843 29.31 18.769 31.0951 19.29C31.466 19.3983 31.8654 19.2993 32.1479 19.029C32.4304 18.7586 32.5553 18.356 32.4773 17.9671C31.803 14.6045 29.5907 11.6642 26.4458 9.56732V9.56732Z" />
<path d="M17.69 17.8315C19.2934 17.746 20.92 17.7522 22.5384 17.8491C21.3144 15.7721 21.1581 13.1653 22.2243 10.896C22.704 9.87489 23.399 8.99704 24.2503 8.31522C22.1117 7.27943 19.6787 6.5883 17.0861 6.33545C13.5774 9.31465 13.9073 15.2849 17.69 17.8315V17.8315Z" />
</g>
<defs>
<clipPath id="clip0_387_1657">
<rect width="32" height="33.007"  transform="translate(0.5 0.0509644)"/>
</clipPath>
</defs>
</svg>
